<?xml version="1.0" standalone="no"?>
<svg xmlns:xlink="http://www.w3.org/1999/xlink" id="wave" style="transform:rotate(180deg); transition: 0.3s" viewBox="0 0 1440 490" version="1.1" xmlns="http://www.w3.org/2000/svg"><defs><linearGradient id="sw-gradient-0" x1="0" x2="0" y1="1" y2="0"><stop stop-color="rgba(146, 188, 83, 1)" offset="0%"/><stop stop-color="rgba(146, 188, 83, 1)" offset="100%"/></linearGradient></defs><path style="transform:translate(0, 0px); opacity:1" fill="url(#sw-gradient-0)" d="M0,245L60,261.3C120,278,240,310,360,269.5C480,229,600,114,720,73.5C840,33,960,65,1080,106.2C1200,147,1320,196,1440,220.5C1560,245,1680,245,1800,204.2C1920,163,2040,82,2160,57.2C2280,33,2400,65,2520,122.5C2640,180,2760,261,2880,285.8C3000,310,3120,278,3240,228.7C3360,180,3480,114,3600,147C3720,180,3840,310,3960,359.3C4080,408,4200,376,4320,310.3C4440,245,4560,147,4680,89.8C4800,33,4920,16,5040,40.8C5160,65,5280,131,5400,196C5520,261,5640,327,5760,310.3C5880,294,6000,196,6120,130.7C6240,65,6360,33,6480,57.2C6600,82,6720,163,6840,179.7C6960,196,7080,147,7200,106.2C7320,65,7440,33,7560,73.5C7680,114,7800,229,7920,269.5C8040,310,8160,278,8280,277.7C8400,278,8520,310,8580,326.7L8640,343L8640,490L8580,490C8520,490,8400,490,8280,490C8160,490,8040,490,7920,490C7800,490,7680,490,7560,490C7440,490,7320,490,7200,490C7080,490,6960,490,6840,490C6720,490,6600,490,6480,490C6360,490,6240,490,6120,490C6000,490,5880,490,5760,490C5640,490,5520,490,5400,490C5280,490,5160,490,5040,490C4920,490,4800,490,4680,490C4560,490,4440,490,4320,490C4200,490,4080,490,3960,490C3840,490,3720,490,3600,490C3480,490,3360,490,3240,490C3120,490,3000,490,2880,490C2760,490,2640,490,2520,490C2400,490,2280,490,2160,490C2040,490,1920,490,1800,490C1680,490,1560,490,1440,490C1320,490,1200,490,1080,490C960,490,840,490,720,490C600,490,480,490,360,490C240,490,120,490,60,490L0,490Z"/></svg>