<?xml version="1.0" standalone="no"?>
<svg xmlns:xlink="http://www.w3.org/1999/xlink" id="wave" style="transform:rotate(180deg); transition: 0.3s" viewBox="0 0 1440 490" version="1.1" xmlns="http://www.w3.org/2000/svg"><defs><linearGradient id="sw-gradient-0" x1="0" x2="0" y1="1" y2="0"><stop stop-color="rgba(53, 68, 30, 1)" offset="0%"/><stop stop-color="rgba(53, 68, 30, 1)" offset="100%"/></linearGradient></defs><path style="transform:translate(0, 0px); opacity:1" fill="url(#sw-gradient-0)" d="M0,441L60,392C120,343,240,245,360,204.2C480,163,600,180,720,212.3C840,245,960,294,1080,285.8C1200,278,1320,212,1440,204.2C1560,196,1680,245,1800,285.8C1920,327,2040,359,2160,359.3C2280,359,2400,327,2520,285.8C2640,245,2760,196,2880,212.3C3000,229,3120,310,3240,302.2C3360,294,3480,196,3600,155.2C3720,114,3840,131,3960,155.2C4080,180,4200,212,4320,253.2C4440,294,4560,343,4680,351.2C4800,359,4920,327,5040,310.3C5160,294,5280,294,5400,310.3C5520,327,5640,359,5760,310.3C5880,261,6000,131,6120,98C6240,65,6360,131,6480,171.5C6600,212,6720,229,6840,228.7C6960,229,7080,212,7200,236.8C7320,261,7440,327,7560,326.7C7680,327,7800,261,7920,228.7C8040,196,8160,196,8280,204.2C8400,212,8520,229,8580,236.8L8640,245L8640,490L8580,490C8520,490,8400,490,8280,490C8160,490,8040,490,7920,490C7800,490,7680,490,7560,490C7440,490,7320,490,7200,490C7080,490,6960,490,6840,490C6720,490,6600,490,6480,490C6360,490,6240,490,6120,490C6000,490,5880,490,5760,490C5640,490,5520,490,5400,490C5280,490,5160,490,5040,490C4920,490,4800,490,4680,490C4560,490,4440,490,4320,490C4200,490,4080,490,3960,490C3840,490,3720,490,3600,490C3480,490,3360,490,3240,490C3120,490,3000,490,2880,490C2760,490,2640,490,2520,490C2400,490,2280,490,2160,490C2040,490,1920,490,1800,490C1680,490,1560,490,1440,490C1320,490,1200,490,1080,490C960,490,840,490,720,490C600,490,480,490,360,490C240,490,120,490,60,490L0,490Z"/></svg>